HIERARCHY
ROOT Hips
{
	OFFSET 0.000000 0.000000 0.000000
	CHANNELS 6 Xposition Yposition Zposition Zrotation Yrotation Xrotation 
	JOINT LHipJoint
	{
		OFFSET 0.000000 0.000000 0.000000
		CHANNELS 3 Zrotation Yrotation Xrotation
		JOINT LeftUpLeg
		{
			OFFSET 1.363060 -1.794630 0.839290
			CHANNELS 3 Zrotation Yrotation Xrotation
			JOINT LeftLeg
			{
				OFFSET 2.448110 -6.726130 0.000000
				CHANNELS 3 Zrotation Yrotation Xrotation
				JOINT LeftFoot
				{
					OFFSET 2.562200 -7.039590 0.000000
					CHANNELS 3 Zrotation Yrotation Xrotation
					JOINT LeftToeBase
					{
						OFFSET 0.157640 -0.433110 2.322550
						CHANNELS 3 Zrotation Yrotation Xrotation
						End Site
						{
							OFFSET 0.000000 0.000000 0.000000
						}
					}
				}
			}
		}
	}
	JOINT RHipJoint
	{
		OFFSET 0.000000 0.000000 0.000000
		CHANNELS 3 Zrotation Yrotation Xrotation
		JOINT RightUpLeg
		{
			OFFSET -1.305520 -1.794630 0.839290
			CHANNELS 3 Zrotation Yrotation Xrotation
			JOINT RightLeg
			{
				OFFSET -2.542530 -6.985550 0.000000
				CHANNELS 3 Zrotation Yrotation Xrotation
				JOINT RightFoot
				{
					OFFSET -2.568260 -7.056230 0.000000
					CHANNELS 3 Zrotation Yrotation Xrotation
					JOINT RightToeBase
					{
						OFFSET -0.164730 -0.452590 2.363150
						CHANNELS 3 Zrotation Yrotation Xrotation
						End Site
						{
							OFFSET 0.000000 0.000000 0.000000
						}
					}
				}
			}
		}
	}
}
MOTION
Frames: 28
Frame Time: 0.008333
2.013488 17.307414 0.785520 8.582895 -55.074961 -2.826239 -8.617024 3.458761 6.826244 -8.055372 -6.519172 -6.847921 -2.731791 -1.460719 -2.346627 0.054697 3.537359 6.661204 1.309900 -0.000000 -47.203600 12.394507 -3.740031 -0.513194 -3.865047 -29.904634 4.355572 1.108585 0.971761 -4.809657 -2.566621 -17.646763 6.079241 -5.088800 0.000000 -66.935500
2.017714 17.307668 0.772845 8.521118 -55.025369 -2.694126 -8.620691 3.460699 6.850050 -7.962692 -6.710058 -6.912961 -2.718126 -1.455997 -2.455874 0.068030 3.644996 6.747241 1.341801 -0.000000 -47.204400 12.377196 -3.714014 -0.523279 -3.700860 -29.771290 4.347313 1.098363 0.990353 -4.897494 -2.598385 -17.833632 6.014188 -5.133700 -0.000001 -66.737900
2.022436 17.308073 0.760533 8.461190 -55.013903 -2.565822 -8.621586 3.471296 6.872161 -7.877530 -6.842104 -6.996871 -2.706978 -1.450074 -2.555184 0.077547 3.714021 6.836441 1.364500 -0.000001 -47.218900 12.362342 -3.684825 -0.512256 -3.521309 -29.560309 4.312533 1.079569 1.010144 -4.950249 -2.640510 -18.070067 5.920899 -5.186600 -0.000001 -66.514000
2.027301 17.308292 0.748339 8.410278 -55.061357 -2.455836 -8.616765 3.491199 6.896677 -7.802246 -6.924560 -7.074273 -2.698030 -1.445542 -2.671539 0.086040 3.774984 6.932578 1.386000 0.000000 -47.249100 12.352499 -3.653756 -0.480336 -3.343247 -29.293198 4.253624 1.056392 1.031110 -4.970560 -2.684854 -18.306957 5.795575 -5.230400 -0.000001 -66.275600
2.032160 17.308275 0.736218 8.377378 -55.183053 -2.361049 -8.614708 3.516615 6.910518 -7.738693 -6.907063 -7.167825 -2.691929 -1.440883 -2.778728 0.089922 3.790758 7.023253 1.395600 -0.000000 -47.303700 12.342539 -3.620885 -0.430741 -3.164215 -28.970764 4.168336 1.031612 1.053636 -4.974665 -2.728079 -18.526433 5.648618 -5.262499 -0.000000 -66.037700
2.037053 17.307910 0.724103 8.365001 -55.384790 -2.280017 -8.618794 3.544293 6.909238 -7.685675 -6.785181 -7.278107 -2.688172 -1.436455 -2.873942 0.089666 3.765820 7.103703 1.393800 0.000000 -47.383200 12.330329 -3.587362 -0.367828 -2.986936 -28.604742 4.058478 1.008328 1.077471 -4.974482 -2.765878 -18.705151 5.487476 -5.277800 0.000000 -65.813100
2.042034 17.307093 0.711755 8.378574 -55.666633 -2.219319 -8.628083 3.571113 6.896066 -7.640895 -6.601439 -7.378631 -2.684745 -1.434091 -2.982320 0.090280 3.749238 7.178106 1.393300 0.000000 -47.480000 12.315855 -3.552795 -0.300580 -2.824667 -28.222838 3.929644 0.990332 1.101233 -4.968910 -2.792042 -18.806203 5.309419 -5.263400 -0.000000 -65.592700
2.046965 17.305873 0.699449 8.403015 -56.021922 -2.161321 -8.644657 3.596531 6.867704 -7.599758 -6.325114 -7.502185 -2.682546 -1.432383 -3.065194 0.088096 3.703175 7.230042 1.383200 -0.000000 -47.596700 12.298546 -3.521686 -0.224682 -2.663120 -27.825663 3.780436 0.978827 1.126388 -4.980073 -2.806769 -18.839099 5.133898 -5.229000 0.000001 -65.406100
2.051741 17.304319 0.687258 8.435024 -56.440144 -2.100628 -8.666946 3.619067 6.830018 -7.556720 -5.994869 -7.640326 -2.679881 -1.432235 -3.131595 0.086560 3.659846 7.259240 1.372000 -0.000000 -47.723900 12.278490 -3.494676 -0.144463 -2.503002 -27.431751 3.612154 0.976003 1.152611 -5.009327 -2.807738 -18.792471 4.963053 -5.172100 -0.000000 -65.239800
2.056631 17.302484 0.675113 8.472217 -56.908693 -2.038828 -8.693566 3.637055 6.787585 -7.508992 -5.653395 -7.778460 -2.674630 -1.433648 -3.191350 0.089462 3.653608 7.268198 1.368400 -0.000001 -47.849700 12.255497 -3.470696 -0.066831 -2.349313 -27.057680 3.434062 0.982376 1.179140 -5.058554 -2.794200 -18.665046 4.802728 -5.094401 -0.000000 -65.097500
2.061569 17.300598 0.663358 8.499809 -57.410019 -1.958937 -8.724583 3.650723 6.742076 -7.451578 -5.298892 -7.939308 -2.666806 -1.435264 -3.217981 0.095202 3.665938 7.247364 1.367199 0.000000 -47.970300 12.229220 -3.451667 0.010379 -2.189055 -26.704724 3.243308 0.997627 1.206709 -5.132931 -2.768932 -18.477730 4.663209 -5.006000 -0.000000 -64.984700
2.066803 17.298765 0.651804 8.521183 -57.929614 -1.867054 -8.757909 3.658977 6.698383 -7.383514 -4.981755 -8.101836 -2.654056 -1.436947 -3.228386 0.108234 3.736891 7.203443 1.378800 0.000000 -48.073500 12.199796 -3.434504 0.079868 -2.028833 -26.380320 3.052883 1.020379 1.234670 -5.231437 -2.733427 -18.238869 4.542427 -4.908999 -0.000000 -64.875100
2.072443 17.297167 0.640779 8.525448 -58.450838 -1.752334 -8.792919 3.662257 6.658830 -7.302680 -4.709074 -8.278749 -2.636119 -1.437583 -3.207341 0.127998 3.858014 7.132785 1.400700 0.000000 -48.153100 12.167196 -3.419386 0.142317 -1.860894 -26.083762 2.860558 1.049149 1.262955 -5.350015 -2.691498 -17.972792 4.447010 -4.812700 0.000001 -64.780300
2.078638 17.295957 0.630365 8.510730 -58.958665 -1.615250 -8.828295 3.660491 6.625423 -7.209900 -4.496648 -8.467679 -2.612587 -1.436568 -3.152341 0.155105 4.033379 7.037200 1.433800 0.000001 -48.203501 12.130830 -3.401453 0.194515 -1.685030 -25.810904 2.631368 1.081047 1.285246 -5.394242 -2.633823 -17.697009 4.325122 -4.721800 -0.000001 -64.692800
2.085558 17.295181 0.620408 8.481348 -59.442295 -1.464225 -8.862493 3.653459 6.599210 -7.107790 -4.364542 -8.656911 -2.582716 -1.433326 -3.068637 0.191118 4.275207 6.921444 1.481200 -0.000000 -48.218200 12.090354 -3.374902 0.232028 -1.505817 -25.552117 2.337973 1.112164 1.295178 -5.274439 -2.552174 -17.429826 4.123526 -4.640700 0.000000 -64.599700
2.093312 17.294917 0.611021 8.440356 -59.899096 -1.301140 -8.894990 3.642361 6.579519 -6.998930 -4.315179 -8.847572 -2.546371 -1.426744 -2.953831 0.236279 4.580445 6.786901 1.541600 0.000000 -48.194500 12.048187 -3.344254 0.257431 -1.325678 -25.302311 2.054409 1.141265 1.303104 -5.146499 -2.474177 -17.193112 3.934080 -4.574300 0.000000 -64.499800
2.101988 17.295213 0.602365 8.387563 -60.326876 -1.126966 -8.925570 3.627950 6.565796 -6.886467 -4.339610 -9.044401 -2.504357 -1.416500 -2.804082 0.289509 4.937315 6.635388 1.612000 0.000000 -48.135901 12.004922 -3.310077 0.273198 -1.144253 -25.055509 1.787014 1.167216 1.310311 -5.025504 -2.406302 -16.997472 3.766542 -4.523000 -0.000000 -64.389300
2.111735 17.296029 0.594227 8.332597 -60.726973 -0.953336 -8.953723 3.610193 6.556017 -6.773787 -4.441949 -9.238018 -2.456493 -1.401950 -2.623721 0.351632 5.349765 6.470539 1.693100 -0.000000 -48.039399 11.961001 -3.269794 0.278112 -0.968086 -24.796776 1.544055 1.186891 1.316226 -4.907207 -2.349846 -16.857658 3.613640 -4.490000 -0.000000 -64.264300
2.122402 17.297367 0.586766 8.279109 -61.102866 -0.782054 -8.979789 3.589719 6.548532 -6.663800 -4.604223 -9.433032 -2.404155 -1.383355 -2.411321 0.420955 5.802406 6.294238 1.780900 -0.000000 -47.914100 11.916902 -3.224792 0.275741 -0.797160 -24.520028 1.328987 1.199944 1.322068 -4.805780 -2.309214 -16.776272 3.483556 -4.473599 -0.000000 -64.123400
2.134056 17.299145 0.579950 8.230381 -61.459736 -0.617842 -9.004302 3.566477 6.540750 -6.558552 -4.812698 -9.628134 -2.348255 -1.360804 -2.169448 0.496285 6.284988 6.109767 1.873100 0.000001 -47.767900 11.872647 -3.175115 0.267844 -0.633600 -24.215961 1.144035 1.205456 1.327904 -4.723305 -2.285290 -16.756261 3.375459 -4.473799 -0.000000 -63.967700
2.146722 17.301241 0.573670 8.190313 -61.802283 -0.465009 -9.027610 3.540238 6.530156 -6.459735 -5.057423 -9.823898 -2.289414 -1.334062 -1.895625 0.576853 6.789696 5.916709 1.967300 -0.000000 -47.603100 11.828268 -3.120211 0.254714 -0.479638 -23.880087 0.990439 1.203206 1.333851 -4.660462 -2.277924 -16.795241 3.285826 -4.488599 -0.000000 -63.798801
2.160123 17.303591 0.568039 8.159712 -62.135996 -0.322680 -9.050676 3.511341 6.514545 -6.367963 -5.313937 -10.021395 -2.229477 -1.304210 -1.596350 0.659895 7.298084 5.720140 2.059600 0.000000 -47.438400 11.783830 -3.062482 0.240000 -0.334159 -23.510873 0.865628 1.194161 1.340204 -4.621478 -2.287013 -16.885583 3.218118 -4.515801 -0.000000 -63.620899
2.174266 17.306048 0.562889 8.139256 -62.463437 -0.191495 -9.073988 3.479585 6.491518 -6.283279 -5.570421 -10.225191 -2.169270 -1.270905 -1.265110 0.743854 7.797570 5.517543 2.146300 0.000000 -47.276400 11.739334 -3.001673 0.223022 -0.198104 -23.113009 0.767886 1.179487 1.347125 -4.605613 -2.310788 -17.016867 3.168633 -4.551300 0.000000 -63.436999
2.189042 17.308553 0.558306 8.123956 -62.787793 -0.068130 -9.098437 3.445057 6.459696 -6.204928 -5.808403 -10.434404 -2.110213 -1.235262 -0.911151 0.826227 8.274069 5.314306 2.224900 -0.000000 -47.134000 11.694554 -2.939806 0.205678 -0.069662 -22.691114 0.691939 1.160750 1.354334 -4.610202 -2.346699 -17.178443 3.137294 -4.593100 0.000000 -63.254900
2.204239 17.310966 0.554262 8.111966 -63.109427 0.049776 -9.124513 3.408102 6.418106 -6.131733 -6.014937 -10.649606 -2.053461 -1.197904 -0.538569 0.904861 8.715197 5.112789 2.292899 -0.000000 -47.019900 11.649546 -2.878009 0.188360 0.052338 -22.253274 0.632447 1.139568 1.361563 -4.630452 -2.391345 -17.358604 3.121535 -4.638900 -0.000000 -63.081100
2.219833 17.313214 0.550642 8.099418 -63.426143 0.165664 -9.152523 3.369265 6.365504 -6.063724 -6.176406 -10.878219 -2.000264 -1.158581 -0.140347 0.977225 9.103698 4.910833 2.345900 0.000000 -46.937400 11.604689 -2.816781 0.169628 0.167757 -21.817506 0.586634 1.118640 1.369423 -4.668284 -2.441963 -17.538015 3.120250 -4.682000 -0.000000 -62.915900
2.235488 17.315261 0.547481 8.082793 -63.737261 0.283322 -9.182703 3.329225 6.303094 -5.999070 -6.286803 -11.114456 -1.951469 -1.118787 0.267021 1.041824 9.435332 4.715542 2.384600 -0.000001 -46.895600 11.559972 -2.757757 0.150644 0.278876 -21.390278 0.546285 1.099076 1.377061 -4.713242 -2.493814 -17.709732 3.130144 -4.723200 0.000000 -62.769499
2.251192 17.317064 0.544745 8.057374 -64.039819 0.405210 -9.214991 3.288687 6.231613 -5.937266 -6.340940 -11.359467 -1.907812 -1.078906 0.680291 1.097221 9.702662 4.527877 2.408000 0.000000 -46.894800 11.515711 -2.701451 0.130550 0.386225 -20.985906 0.506737 1.082683 1.384513 -4.761911 -2.543394 -17.861012 3.148787 -4.759401 0.000000 -62.645001
